# xmcd CD database file
#
# Track frame offsets:
#	150
#	23854
#	47935
#	61191
#	82823
#	98269
#	121897
#	150394
#
# Disc length: 2320 seconds
#
# Revision: 0
# Processed by: cddbd v1.5.1PL0 Copyright (c) Steve Scherf et al.
# Submitted via: CDex 1.51
#
DISCID=4e090e08
DTITLE=Popa Chubby Virgin Mega - CD2 Virgin Mega
DYEAR=2005
DGENRE=Blues
TTITLE0=Telephon woman
TTITLE1=I can't forget the things you said
TTITLE2=Guard my heart
TTITLE3=Dance the night away
TTITLE4=It all turns to gold
TTITLE5=Nobody loves me like I love myself
TTITLE6=Take it like a man (Dave Meniketti)
TTITLE7=No confort
EXTD=YEAR: 2005
EXTT0=
EXTT1=
EXTT2=
EXTT3=
EXTT4=
EXTT5=
EXTT6=
EXTT7=
PLAYORDER=
